/* XPM */
static char *rose[] = {
/* columns rows colors chars-per-pixel */
"70 46 252 2 ",
"   c #2B2F1E",
".  c #2D2B2B",
"X  c #2A2927",
"o  c #322D2B",
"O  c #372C2A",
"+  c #2D322C",
"@  c #2D362A",
"#  c #33332D",
"$  c #3A332D",
"%  c #333C2C",
"&  c #3C3A2D",
"*  c #363724",
"=  c #2D2E31",
"-  c #343431",
";  c #3B3532",
":  c #363B33",
">  c #3B3B33",
",  c #3B3D39",
"<  c #302F30",
"1  c #44392D",
"2  c #433B32",
"3  c #4A3D32",
"4  c #433935",
"5  c #583B36",
"6  c #4F302A",
"7  c #69362C",
"8  c #743A2D",
"9  c #7C3A2D",
"0  c #75352A",
"q  c #6A3A33",
"w  c #7C3B32",
"e  c #733B33",
"r  c #602E24",
"t  c #592B1F",
"y  c #38422B",
"u  c #3A4233",
"i  c #394536",
"p  c #45472C",
"a  c #53442E",
"s  c #4C4234",
"d  c #474738",
"f  c #554C3C",
"g  c #5C4D3C",
"h  c #584935",
"j  c #485738",
"k  c #58543B",
"l  c #43572D",
"z  c #654638",
"x  c #764337",
"c  c #63553B",
"v  c #79412D",
"b  c #4A6539",
"n  c #556A3C",
"m  c #607C3C",
"M  c #38354C",
"N  c #463E62",
"B  c #3C464C",
"V  c #594D45",
"C  c #4B5844",
"Z  c #5A5746",
"A  c #535052",
"S  c #655B48",
"D  c #77584A",
"F  c #685E55",
"G  c #73544D",
"H  c #596847",
"J  c #597845",
"K  c #5A6853",
"L  c #597350",
"P  c #68654B",
"I  c #647B47",
"U  c #6A6354",
"Y  c #696657",
"T  c #677857",
"R  c #746A53",
"E  c #5C5869",
"W  c #4E4D69",
"Q  c #6B5A6B",
"!  c #6A6667",
"~  c #717270",
"^  c #91341D",
"/  c #843B2C",
"(  c #8B3C2C",
")  c #883725",
"_  c #933D2C",
"`  c #993B2A",
"'  c #853B34",
"]  c #983D34",
"[  c #AC3B2B",
"{  c #A53928",
"}  c #B43B2B",
"|  c #BB3B2B",
" . c #B93826",
".. c #B73B33",
"X. c #AA3C31",
"o. c #CC352A",
"O. c #C43A2B",
"+. c #CB3A2B",
"@. c #C73725",
"#. c #D5352A",
"$. c #DB342B",
"%. c #D3392B",
"&. c #DB3A2E",
"*. c #D73625",
"=. c #C43D33",
"-. c #CC3B33",
";. c #C43937",
":. c #D43C33",
">. c #DD3B34",
",. c #D93837",
"<. c #DA2E27",
"1. c #F7292B",
"2. c #E2342C",
"3. c #E8342A",
"4. c #F3312D",
"5. c #EC2C37",
"6. c #F92A37",
"7. c #E43A34",
"8. c #EC363A",
"9. c #E43B3B",
"0. c #EB3B3C",
"q. c #E83734",
"w. c #F63439",
"e. c #E72D29",
"r. c #FF1A38",
"t. c #884336",
"y. c #984537",
"u. c #98402C",
"i. c #A7412B",
"p. c #A74435",
"a. c #B94437",
"s. c #CC413B",
"d. c #C54338",
"f. c #D6443C",
"g. c #E4423B",
"h. c #B63D45",
"j. c #DA3D43",
"k. c #C03E40",
"l. c #FC2B48",
"z. c #E93D45",
"x. c #F83B43",
"c. c #FA3B58",
"v. c #F03654",
"b. c #FF3B66",
"n. c #FB3E71",
"m. c #864A44",
"M. c #994447",
"N. c #87574A",
"B. c #95544C",
"V. c #925855",
"C. c #A94845",
"Z. c #B3524C",
"A. c #8C6855",
"S. c #B16D59",
"D. c #946C67",
"F. c #B0746D",
"G. c #BA5D7B",
"H. c #C64B47",
"J. c #D34342",
"K. c #DC4443",
"L. c #D94A46",
"P. c #D75348",
"I. c #C94A57",
"U. c #D05154",
"Y. c #E74546",
"T. c #F6454A",
"R. c #F94956",
"E. c #E95657",
"W. c #EC5055",
"Q. c #CC5969",
"!. c #FB4667",
"~. c #FB5668",
"^. c #FE4877",
"/. c #FD5776",
"(. c #E75A64",
"). c #D56F71",
"_. c #F8686B",
"`. c #FA6774",
"'. c #F9737A",
"]. c #E96F6F",
"[. c #DC645B",
"{. c #5D833E",
"}. c #5E8447",
"|. c #65884A",
" X c #6B944B",
".X c #719B4D",
"XX c #6D9554",
"oX c #739957",
"OX c #6E8759",
"+X c #78A658",
"@X c #7B9B68",
"#X c #728E6D",
"$X c #7CA567",
"%X c #7EA871",
"&X c #879172",
"*X c #8AA877",
"=X c #8DAD72",
"-X c #9B9874",
";X c #F9827C",
":X c #58588F",
">X c #727196",
",X c #5C5EA3",
"<X c #7977A6",
"1X c #6E73B2",
"2X c #6261A7",
"3X c #7478CD",
"4X c #8C7DAE",
"5X c #9B7497",
"6X c #FD7985",
"7X c #E97B84",
"8X c #C56995",
"9X c #837EC8",
"0X c #7D9096",
"qX c #7D87CB",
"wX c #8E968E",
"eX c #90AD8F",
"rX c #ACAD91",
"tX c #8785BC",
"yX c #8383A9",
"uX c #B0B1B0",
"iX c #A48FA8",
"pX c #FF8A8E",
"aX c #CFAE96",
"sX c #C4BCB8",
"dX c #C9B9A7",
"fX c #D299A0",
"gX c #AACE93",
"hX c #A6C8A8",
"jX c #D1CEB3",
"kX c #ECE4B0",
"lX c #8988C8",
"zX c #8886D8",
"xX c #9695D2",
"cX c #8D8FEB",
"vX c #9CA2EA",
"bX c #A6ABFA",
"nX c #AEB4F9",
"mX c #A6A3D8",
"MX c #BBC4C9",
"NX c #D3CFCB",
"BX c #EBD9D0",
"VX c #D2E5C6",
"CX c #E9EBD9",
"ZX c #F1EAD5",
"AX c #E7E4E6",
"SX c #FDFDED",
"DX c #F7F5E3",
"FX c #FCFCF4",
"GX c #FEFEFD",
"HX c #FBF5F7",
"JX c #F2EDED",
"KX c #D5D4EA",
/* pixels */
"o # # $ $ $ $ $ $ $ O O o O O o o # $ $ & 2 s s s a x y.a.d.Y.Y.x.x.f.| i.i.i.u._ _ _ _ _ ] p.a.y.5 ; ; $ # # . o o O 5 m.D.4X1XW W ~ wX~ A ",
". o # # $ $ O $ $ $ O o o O O o # # # - & 2 3 1 s s z t.X.a.K.Y.x.x.s.} } i.i.` _ _ _ _ _ ] a.d.y.1 ; ; # # # + # O o 4 x V.4X2XN W E #X! A ",
". . o o o o o o o o o o o o o o # # # - $ $ 1 1 3 d h 7 / y.d.K.w.0.a.i.[ X.` _ ( ( ( ( ( y.d.H.N.> ; $ # # + + + - # o 6 G tX3XW M M B C Z ",
". . . . . . . . . . . . . o o . o o o # $ $ $ 1 2 3 5 5 0 _ p.a.K.L.i.u.] ] _ ( ( / / ' t.y.C.S.&XK d $ + + + . + # + = O ! xXqX>XE ~ wX0XK ",
"= = = . . . . X . . . . . . . . o . . o ; ; ; $ 1 4 4 3 7 ( ] y.p.a.] _ ` _ ( / / / 9 x m.y.Z.-XeX#XZ > + . o o . . o = o T eXeXhXhXeXeXwXH ",
"+ . + # # o o . . . . . . . . . . . O O $ ; $ $ $ $ % $ 6 7 t.( _ y.] _ ( ( ( / 9 8 w t.m.B.&XeXeX#XT C > . X . . o = = X H *X*XgXgXeXeX#XC ",
"# # # ; ; $ $ o < = . o . o # # = O $ 1 1 2 $ $ $ 1 6 6 O 6 7 ' ' w t.t./ ( / 8 8 8 x t.m.A.#X0XeX%X#XOXK : X X . . . X X Z @X@X%X%X%X%X#XC ",
": : > > 4 4 4 ; ; ; ; $ # # # - ; ; 2 3 3 3 2 4 4 ; 4 1 $ 1 7 ' M.t.' x 9 9 8 0 Z.Z.x S D R S.).rX*X&X%X#XK & X X X O 6 f T OXXXoX#X@X#XOXC ",
"> > , 4 4 d d d 4 2 2 2 2 ; $ $ ; 2 3 s s 3 2 2 > 1 m.M.t.C.p.X.p.p.p.h.M.x w k.Y.H.D P A.E.l.l.c.!.(.).).Q.Q.I.M.6 $ p c OXOXOX#X@XwXwXT Z ",
"- - , 4 d d d d s 3 1 3 2 2 ; $ & 3 3 s 3 3 1 > % m.W.-.` =.X...a.{ ..:.8.9.f.8.<.d.A.N.[.x.Y.T.l.l.c.c.b.n.^.!./.Q.q p ~ wXwXeXuXNXNXuXT H ",
"- - > > d d d d d A d 1 1 ; ; ; > 4 s a 1 3 4 % 2 C.[ { i.{ { X.p.p.a.+.3.1.4.2.*.O.H.E.T.j.[ d.Y.x.R.c.b.n.^.!././.Q.D.NXAXKXJXHXHXJXNXwX#X",
"# . - > > d f d A yX<XE B ; * # & 2 s s 1 $ # 1 ' [ { { } =...[ } =.O.#.&.4.4.*.*.%.-.K.f.=.[ [ J.T.T.R.!.^.^.^./.!.7XA.BXGXGXGXGXGXGXJXsXuX",
"> # # $ > s f f Q vXnXvXlX>XA B , 1 p i B W A z y.[ i.} O.%.:.-.:.:.>.3.1.1.3.*.@.%.f.P... . .d.J.L.Y.R.!.!./././.~./.U.aXGXGXGXFXGXHXBXCXAX",
"d 2 $ # $ 4 h h E xXnXnXnXbX9X2XW M , A 4XiXG.I.} { } O.:.7.,.9.7.&.g.w.1.1.2.o.+.+.#.Y.J. .O.=.P.d.Y.E.(.~.^./.~.~.~.I.F.JXGXGXFXFXJXNXDXSX",
"f d d ; ; 4 s a A lXbXnXnXbXvXzX1X:XV.I.W.L.,.9.-.| =.:.&.$.&.&.$.#.@.&.w.w.$.&.q.2.&.Y.L.:.O.| d.| d.H.(.`.~./.'._.7XD.V NXGXGXGXGXGXCXDXSX",
"f f f s 2 d d a A tXbXbXbXbXnXbXmX8XK.0.7.d.f.z.9.s.d. .o.&.&.$.*.@.@.o.#.2.q.5.1.2.@.L.L.L.O.O. . .} a.E._._.`.].'.6X&Xl NXGXGXGXSXGXFXDXSX",
"V V g f f d f h A 0XxXcXvXxXlXtX8Xz.g.z.z.;.L.z.f.=.O. .+.7.2.2.%. .;.0.@.@.o.#.o.@.+.>.Y.E.f.O.} [ [ [ P._.(._.`._./.#XH ZXGXGXCXVXCXDXZXZX",
"g g g g g f f h V Q <XtXlX1X2XQ j.x.g.T.K...d.#.d.| | @.*.2.w.6.6.5.6.1.#.o.7.7.s.O.o.7.e.#.o.f...[ [ { a.].'.'.'.~.!.-X@XjXVXhXeXeXgXjXZXNX",
"g g g g g g g g V V E >X9X4X5Xh.+.g.x.Y...{ d.>.s. .O.@.*.3.2.e.1.6.r.6.z.8.6.1.>.Y.,.>.#.O.O.P.-.-.:.O.} ].pX6X'.!.R.&X|.OXI OX$X=X=X*XuXsX",
"g g g g g g g g g g V E <XfX`.l.z.J.T.K.} { s.8.Y.P.O.o.2.4.w.6.6.l.v.~.~.v.,. .s.E.J.+.O.{ [ J.>.5.4.7. .[.pX6X`.!.c.n |.&X@X%X=X=X=X=XrXjX",
"h h h g g g g g g c z Q tXiX'.R.v.z.,.=.[ } :.$.*.Y.s.%.8.w.1.1.1.5.c.`.W.-.{ ^ X.;.L.+.+.} O.K.2.6.1.4.@.H.pX6X/.b.I.j oX*X*X$X$X$X$X=XeXeX",
"g g g g g g g V F Q ! <XcXlXF.(.R.x.>.d.[ a.d.o.$.2.g.&.5.T.T.e.e.$.j.j.,.o.P.U.H.E.K.f.>.w.w.0.$.5.6.4.o.a.pX6X!.b.M.b oX$X@XoX$X$X+X=X*XOX",
"g g c g g c g E <X4X1XqXxXuXaXS.H.T.8.:.| Z.[.d.$.2.7.2.4.w.W.W.W.E.J.0.5.R.'.`.W.,.f.f.2.6.w.q.$.4.6.4.%...pX`.b.!.5 j oX@XXXoXoX+X+X=X&XT ",
"g V S S c V E >X1X1X3XmXkXkXkXrXD.).W.8.,.| Z.P.#.0.9.e.e.$.-.W.~.`._.6.6.R.~.W.&.2.>.%.7.0.q.$.2.4.6.4.&...6X/.b.I.& p T oX XXXoXoX X|.b b ",
"h g S S c Q <X1X2X3XvXKXNXNXsXwX! D.]._.T.>.=.d.%.Y.Y.7.2.+. .-.j.~.E.&.T.z.9.w.q.4.2.>.q.8.q.&.2.3.w.4.$.J.`.b.!.m.f p j |.|. XXX X}.J H J ",
"d d g c F >X<X,X1XzXmXmXmXxXlX~ F D Z.].;XE.o. .+.:.%.&.&.O.d.=.;.P.J.@.5.6.6.r.6.5.>.9.q.8.2.$.*.3.4.3.#.E.~.b.I.* d * j I |.|. X|.|.|.I I ",
"$ > s f ! >X:X,X3XzXzXlXzXlXyXQ Z D U.].;X;XO. .O.#.+.@.%.+.O.+.-.-.+.<.6.6.6.6.6.8.>.>.q.8.2.#.*.*.*.*.:.~.b.!.q X   k rXOX{. XoX|.|.|.|.|.",
"X + ; d E :X,X3XcXzXlXzXzXlX5XG P P Z.(._.L.@.@.%.#.O.| f.+.+.@.o.&.>.8.w.5.q.w.8.7.>.9.8.w.7.+.+.+.@.@.Y.!.b.C.- O p =XgXXX{..XXX|.|.|.|. X",
"@ . # > A E >XcXcX3XlXlXlX5XY Z S S N.E.0.$.*.*.2.o.| O.f.O.O.+.%.$.q.w.5.Y.W.g.7.>.9.0.8.8.>.| | |  . .~.c.I.s @ 6 &XgX*Xb {. X|.|. X X|..X",
"> > > p d Z ! tXzX<X<X<X~ F S S F N.p.#.2.2.*.@.%. . .:.Y.}  .O.:.7.0.q.T.E.s.,.>.7.8.8.8.8.:.} { { ` H.~.U.N.* p oX=X&Xj y I  X|.|. XXX.X+X",
"f V V f V Z S ! ~ ! E A Z S S U N.Z.[ o.2.&.#.%.%.| { O.:.f.f.,.9.8.9.=. .| :.8.8.7.7.7.q.0.s.{ ` ) ) U.Z.B.N.m =XoXj & # u I .X XXX X.X+X+X",
"S S S S S S S S S S Z f d f Z Z V.U.#.} +.&.%.#.%.| ^ [ O.%.8.8.8.8.,.[ { } :.8.w.q.7.9.,.s.[ _ ( ) 9 C.B.V.D.*XH   : $ > u |.oXXX.X.X+X+X|.",
"F U U U F U U U P P P Z d d d d f Z.T.+.@.%.%.%.%.| ^ ^ | >.Y.:.....{ ` u.{  .:.0.7.f.s...` ) / 9 0 t.B.V.V.N.p @ , C & % y |..X.X.X+X$X|.}.",
"F U U U U F F U U U U P Z d u u y B.E.T.-.+.-.:.:.s...a.K.Y.J.] t.t.v / ( ( _ { ..=.} { _ / 9 9 8 0 y.m.B.V.D.I j K j * & y |..X.X+X$X|.|.|.",
"F F F U U U U U U U U U U V s y m.k.P._.L.s.f.L.L.Y.Y.Y.Y.Y.s.] t.' ' ' w 9 9 9 / ( _ ( / 9 0 0 0 e m.N.B.V.Z b I l y > % & J oX.X+XXX}.|.|.",
"F U U U U U U U U U U U F U Z p x M.C.H.H.J.:.s.K.K.Y.Y.g.g.s.] / ' ' / / 9 9 9 w w 9 9 9 8 0 0 7 x N.B.B.R L H j y & > : & n oX+XoX}.}.|.}.",
"U U U U U U U U U U U F ~ rXuX~ % % & & h C.J.,.K.K.K.K.f.f.f.X./ 9 / / / 9 9 w w 9 8 8 8 8 7 7 r e B.V.D Z j y u d u % : $ j oX+X}.J |.|.J ",
"U U U U U U U U U U F &XNXGXGXBX-Xp y > + 5 ).U.>.Y.K.K.f.f.f.a.( 9 / / 9 9 w w 8 8 8 7 0 7 7 7 r 8 B.D f u @ - + : i % + # p oXXXJ J }.}.J ",
"U U U U U U U U U U ! MXGXGXGXSXZX-Xj $ V wXJXZX).;.s.J.,.f.,.d._ / 9 9 9 w w w e 7 7 7 7 7 7 r t q G s @ % : : % @ u i # X p @X}.n J J |.H ",
"Y Y Y Y U U U U U U ! uXHXGXSXSXSXBXR d wXJXGXGXFXaXC...s.s.J...( ' w 9 9 w w 8 7 7 7 7 7 7 q 7 q G ; # # $ # @ % @ @ u u @ d #Xb b b J |.j ",
"Y Y U U U Y Y U Y ! uXAXGXGXSXSXSXjXT ~ NXGXGXGXGXGXBXS.} d.d.p.t.' ' w 9 8 8 0 q q 7 7 7 q q z A.Y + % # # # + + @ + @ : u d C j H b L L i ",
"Y Y U U U U Y Y Y #XKXGXGXFXCXCXZXjXrXNXJXGXGXGXGXGXGXFXaXp.| ..] x x x x x q q e q 7 q q z z c #XC + % # # + + @ + + + + @ % % y j j L K @ ",
"Y Y U Y Y Y Y Y Y ~ NXGXGXFXCXCXZXNXAXGXGXGXGXGXGXGXGXGXGXkXS.] _ 9 x e x x q q e q q 5 3 k k k T y # % - % @ + @ + + + + + @ u u % i K C + ",
"U Y Y Y Y Y Y Y T ~ MXGXGXFXDXVXNXAXHXGXGXGXGXGXGXGXGXGXGXGXSXjXD.x r 7 7 q q q z h h S p y p R H % : : : > > : : - + + X . + + i i % j C % ",
"U U Y Y Y U Y Y Y ~ NXGXGXFXDXjXsXJXGXGXGXGXGXGXGXGXGXFXGXGXGXGXGXDXBXdXc a h h f f d H p y p P S d > > : > i i , i , : - + + . + i i i i % ",
"K K Y Y Y Y Y Y Y 0XNXHXSXCXNXjXsXAXGXGXGXGXGXGXGXGXGXGXHXJXGXGXGXGXSXZXP a h h d d j p j H P k k k d d > u u i u u i i i u : y b b i j C u "
};
